# xmcd CD database file
#
# Track frame offsets:
#	150
#	18717
#	32057
#	51772
#	80687
#	99572
#	127707
#	140800
#	175027
#	186590
#	209912
#	240878
#	261718
#	276344
#
# Disc length: 3990 seconds
#
# Revision: 0
# Processed by: cddbd v1.5.1PL0 Copyright (c) Steve Scherf et al.
# Submitted via: CDex 1.51
#
DISCID=d60f940e
DTITLE=Richmond Fontaine - Lost Son
DYEAR=1998
DGENRE=Country
TTITLE0=Savior Of Time
TTITLE1=Ft. Lewis
TTITLE2=Cascade
TTITLE3=Mule
TTITLE4=Contrails
TTITLE5=Fifteen Year Old Kid In Nogales, Mexico
TTITLE6=Pinkerton
TTITLE7=A Girl In A House In Felony Flats
TTITLE8=Muddy Conscience
TTITLE9=Four Hours Out
TTITLE10=Hope and Repair
TTITLE11=Lost Son
TTITLE12=Hardly Seen
TTITLE13=El Cortez
EXTD=YEAR: 1998
EXTT0=
EXTT1=
EXTT2=
EXTT3=
EXTT4=
EXTT5=
EXTT6=
EXTT7=
EXTT8=
EXTT9=
EXTT10=
EXTT11=
EXTT12=
EXTT13=
PLAYORDER=
